<svg width="118" height="12" viewBox="0 0 118 12" fill="none" xmlns="http://www.w3.org/2000/svg">
<path d="M19.3268 9.83938C18.9248 9.83938 18.5528 9.76138 18.2108 9.60538C17.8748 9.44938 17.5988 9.22438 17.3828 8.93038L18.0488 8.12938C18.2228 8.36938 18.4118 8.54938 18.6158 8.66938C18.8258 8.78938 19.0538 8.84938 19.2998 8.84938C19.9538 8.84938 20.2808 8.46238 20.2808 7.68837V4.43038H18.0398V3.44937H21.4508V7.62538C21.4508 8.36938 21.2678 8.92438 20.9018 9.29038C20.5418 9.65638 20.0168 9.83938 19.3268 9.83938Z" fill="#293357"/>
<path d="M22.0691 9.74938L24.9041 3.44937H26.0561L28.9001 9.74938H27.6761L25.2371 4.07037H25.7051L23.2751 9.74938H22.0691ZM23.3741 8.29138L23.6891 7.37338H27.0911L27.4061 8.29138H23.3741Z" fill="#293357"/>
<path d="M31.6543 9.83938C31.1623 9.83938 30.6913 9.77038 30.2413 9.63238C29.7913 9.48838 29.4343 9.30538 29.1703 9.08338L29.5753 8.17438C29.8273 8.37238 30.1393 8.53738 30.5113 8.66938C30.8833 8.80138 31.2643 8.86738 31.6543 8.86738C31.9843 8.86738 32.2513 8.83138 32.4553 8.75938C32.6593 8.68738 32.8093 8.59138 32.9053 8.47138C33.0013 8.34538 33.0493 8.20438 33.0493 8.04838C33.0493 7.85638 32.9803 7.70338 32.8423 7.58938C32.7043 7.46938 32.5243 7.37638 32.3023 7.31038C32.0863 7.23838 31.8433 7.17238 31.5733 7.11238C31.3093 7.05238 31.0423 6.98338 30.7723 6.90538C30.5083 6.82138 30.2653 6.71638 30.0433 6.59038C29.8273 6.45837 29.6503 6.28438 29.5123 6.06838C29.3743 5.85238 29.3053 5.57638 29.3053 5.24037C29.3053 4.89838 29.3953 4.58638 29.5753 4.30438C29.7613 4.01637 30.0403 3.78837 30.4123 3.62037C30.7903 3.44637 31.2673 3.35938 31.8433 3.35938C32.2213 3.35938 32.5963 3.40738 32.9683 3.50338C33.3403 3.59938 33.6643 3.73738 33.9403 3.91738L33.5713 4.82637C33.2893 4.65837 32.9983 4.53537 32.6983 4.45738C32.3983 4.37337 32.1103 4.33137 31.8343 4.33137C31.5103 4.33137 31.2463 4.37037 31.0423 4.44837C30.8443 4.52638 30.6973 4.62838 30.6013 4.75438C30.5113 4.88038 30.4663 5.02438 30.4663 5.18638C30.4663 5.37838 30.5323 5.53438 30.6643 5.65438C30.8023 5.76838 30.9793 5.85838 31.1953 5.92438C31.4173 5.99038 31.6633 6.05638 31.9333 6.12238C32.2033 6.18238 32.4703 6.25138 32.7343 6.32938C33.0043 6.40738 33.2473 6.50938 33.4633 6.63538C33.6853 6.76138 33.8623 6.93238 33.9943 7.14838C34.1323 7.36438 34.2013 7.63738 34.2013 7.96738C34.2013 8.30338 34.1083 8.61538 33.9223 8.90338C33.7423 9.18538 33.4633 9.41338 33.0853 9.58738C32.7073 9.75538 32.2303 9.83938 31.6543 9.83938Z" fill="#293357"/>
<path d="M34.4704 9.74938L37.3054 3.44937H38.4574L41.3014 9.74938H40.0774L37.6384 4.07037H38.1064L35.6764 9.74938H34.4704ZM35.7754 8.29138L36.0904 7.37338H39.4924L39.8074 8.29138H35.7754Z" fill="#293357"/>
<path d="M42.1026 9.74938V3.44937H43.2726V9.74938H42.1026Z" fill="#293357"/>
<path d="M44.9767 9.74938V3.44937H45.9397L48.6937 8.04838H48.1897L50.8987 3.44937H51.8617L51.8707 9.74938H50.7637L50.7547 5.18638H50.9887L48.6847 9.02938H48.1627L45.8227 5.18638H46.0927V9.74938H44.9767Z" fill="#293357"/>
<path d="M56.0597 9.74938V3.44937H59.0117C59.7677 3.44937 60.3437 3.59937 60.7397 3.89938C61.1357 4.19338 61.3337 4.58938 61.3337 5.08738C61.3337 5.42338 61.2557 5.71138 61.0997 5.95138C60.9437 6.18538 60.7337 6.36838 60.4697 6.50038C60.2117 6.62638 59.9297 6.68938 59.6237 6.68938L59.7857 6.36538C60.1397 6.36538 60.4577 6.43138 60.7397 6.56338C61.0217 6.68938 61.2437 6.87538 61.4057 7.12138C61.5737 7.36738 61.6577 7.67338 61.6577 8.03938C61.6577 8.57938 61.4507 8.99938 61.0367 9.29938C60.6227 9.59938 60.0077 9.74938 59.1917 9.74938H56.0597ZM57.2297 8.83138H59.1197C59.5577 8.83138 59.8937 8.75938 60.1277 8.61538C60.3617 8.47138 60.4787 8.24038 60.4787 7.92238C60.4787 7.61037 60.3617 7.38238 60.1277 7.23838C59.8937 7.08838 59.5577 7.01338 59.1197 7.01338H57.1397V6.10438H58.8857C59.2937 6.10438 59.6057 6.03238 59.8217 5.88838C60.0437 5.74438 60.1547 5.52838 60.1547 5.24037C60.1547 4.94638 60.0437 4.72738 59.8217 4.58338C59.6057 4.43938 59.2937 4.36737 58.8857 4.36737H57.2297V8.83138Z" fill="#293357"/>
<path d="M62.9064 9.74938V3.44937H64.0764V8.75938H67.3704V9.74938H62.9064Z" fill="#293357"/>
<path d="M71.1318 9.83938C70.6398 9.83938 70.1868 9.75838 69.7728 9.59638C69.3588 9.43438 68.9988 9.20938 68.6928 8.92138C68.3868 8.62738 68.1498 8.28538 67.9818 7.89538C67.8138 7.49938 67.7298 7.06738 67.7298 6.59938C67.7298 6.13138 67.8138 5.70237 67.9818 5.31238C68.1498 4.91638 68.3868 4.57438 68.6928 4.28637C68.9988 3.99238 69.3588 3.76438 69.7728 3.60238C70.1868 3.44038 70.6368 3.35938 71.1228 3.35938C71.6148 3.35938 72.0648 3.44038 72.4728 3.60238C72.8868 3.76438 73.2468 3.99238 73.5528 4.28637C73.8588 4.57438 74.0958 4.91638 74.2638 5.31238C74.4318 5.70237 74.5158 6.13138 74.5158 6.59938C74.5158 7.06738 74.4318 7.49938 74.2638 7.89538C74.0958 8.29138 73.8588 8.63338 73.5528 8.92138C73.2468 9.20938 72.8868 9.43438 72.4728 9.59638C72.0648 9.75838 71.6178 9.83938 71.1318 9.83938ZM71.1228 8.81338C71.4408 8.81338 71.7348 8.75938 72.0048 8.65138C72.2748 8.54338 72.5088 8.39038 72.7068 8.19238C72.9048 7.98838 73.0578 7.75437 73.1658 7.49038C73.2798 7.22038 73.3368 6.92338 73.3368 6.59938C73.3368 6.27538 73.2798 5.98138 73.1658 5.71738C73.0578 5.44738 72.9048 5.21338 72.7068 5.01538C72.5088 4.81138 72.2748 4.65538 72.0048 4.54738C71.7348 4.43938 71.4408 4.38538 71.1228 4.38538C70.8048 4.38538 70.5108 4.43938 70.2408 4.54738C69.9768 4.65538 69.7428 4.81138 69.5388 5.01538C69.3408 5.21338 69.1848 5.44738 69.0708 5.71738C68.9628 5.98138 68.9088 6.27538 68.9088 6.59938C68.9088 6.91738 68.9628 7.21138 69.0708 7.48138C69.1848 7.75138 69.3408 7.98838 69.5388 8.19238C69.7368 8.39038 69.9708 8.54338 70.2408 8.65138C70.5108 8.75938 70.8048 8.81338 71.1228 8.81338Z" fill="#293357"/>
<path d="M78.672 9.83938C78.192 9.83938 77.745 9.76138 77.331 9.60538C76.923 9.44338 76.566 9.21838 76.26 8.93038C75.96 8.63637 75.726 8.29138 75.558 7.89538C75.39 7.49938 75.306 7.06738 75.306 6.59938C75.306 6.13138 75.39 5.69938 75.558 5.30338C75.726 4.90738 75.963 4.56538 76.269 4.27737C76.575 3.98338 76.932 3.75838 77.34 3.60238C77.748 3.44038 78.195 3.35938 78.681 3.35938C79.197 3.35938 79.668 3.44938 80.094 3.62938C80.52 3.80338 80.88 4.06438 81.174 4.41237L80.418 5.12338C80.19 4.87738 79.935 4.69438 79.653 4.57437C79.371 4.44838 79.065 4.38538 78.735 4.38538C78.405 4.38538 78.102 4.43938 77.826 4.54738C77.556 4.65538 77.319 4.80838 77.115 5.00638C76.917 5.20438 76.761 5.43837 76.647 5.70837C76.539 5.97837 76.485 6.27538 76.485 6.59938C76.485 6.92338 76.539 7.22038 76.647 7.49038C76.761 7.76038 76.917 7.99438 77.115 8.19238C77.319 8.39038 77.556 8.54338 77.826 8.65138C78.102 8.75938 78.405 8.81338 78.735 8.81338C79.065 8.81338 79.371 8.75338 79.653 8.63338C79.935 8.50738 80.19 8.31838 80.418 8.06638L81.174 8.78638C80.88 9.12838 80.52 9.38938 80.094 9.56938C79.668 9.74938 79.194 9.83938 78.672 9.83938Z" fill="#293357"/>
<path d="M83.339 8.26438L83.276 6.87838L86.579 3.44937H87.893L85.148 6.36538L84.5 7.07638L83.339 8.26438ZM82.295 9.74938V3.44937H83.465V9.74938H82.295ZM86.687 9.74938L84.275 6.87838L85.049 6.02338L88.055 9.74938H86.687Z" fill="#293357"/>
<path d="M91.5392 9.83938C91.0592 9.83938 90.6122 9.76138 90.1982 9.60538C89.7902 9.44338 89.4332 9.21838 89.1272 8.93038C88.8272 8.63637 88.5932 8.29138 88.4252 7.89538C88.2572 7.49938 88.1732 7.06738 88.1732 6.59938C88.1732 6.13138 88.2572 5.69938 88.4252 5.30338C88.5932 4.90738 88.8302 4.56538 89.1362 4.27737C89.4422 3.98338 89.7992 3.75838 90.2072 3.60238C90.6152 3.44038 91.0622 3.35938 91.5482 3.35938C92.0642 3.35938 92.5352 3.44938 92.9612 3.62938C93.3872 3.80338 93.7472 4.06438 94.0412 4.41237L93.2852 5.12338C93.0572 4.87738 92.8022 4.69438 92.5202 4.57437C92.2382 4.44838 91.9322 4.38538 91.6022 4.38538C91.2722 4.38538 90.9692 4.43938 90.6932 4.54738C90.4232 4.65538 90.1862 4.80838 89.9822 5.00638C89.7842 5.20438 89.6282 5.43837 89.5142 5.70837C89.4062 5.97837 89.3522 6.27538 89.3522 6.59938C89.3522 6.92338 89.4062 7.22038 89.5142 7.49038C89.6282 7.76038 89.7842 7.99438 89.9822 8.19238C90.1862 8.39038 90.4232 8.54338 90.6932 8.65138C90.9692 8.75938 91.2722 8.81338 91.6022 8.81338C91.9322 8.81338 92.2382 8.75338 92.5202 8.63338C92.8022 8.50738 93.0572 8.31838 93.2852 8.06638L94.0412 8.78638C93.7472 9.12838 93.3872 9.38938 92.9612 9.56938C92.5352 9.74938 92.0612 9.83938 91.5392 9.83938Z" fill="#293357"/>
<path d="M99.5902 3.44937H100.76V9.74938H99.5902V3.44937ZM96.3322 9.74938H95.1622V3.44937H96.3322V9.74938ZM99.6802 7.04938H96.2332V6.05038H99.6802V7.04938Z" fill="#293357"/>
<path d="M101.557 9.74938L104.392 3.44937H105.544L108.388 9.74938H107.164L104.725 4.07037H105.193L102.763 9.74938H101.557ZM102.862 8.29138L103.177 7.37338H106.579L106.894 8.29138H102.862Z" fill="#293357"/>
<path d="M109.19 9.74938V3.44937H110.36V9.74938H109.19Z" fill="#293357"/>
<path d="M112.064 9.74938V3.44937H113.027L116.978 8.30037H116.501V3.44937H117.662V9.74938H116.699L112.748 4.89838H113.225V9.74938H112.064Z" fill="#293357"/>
<path d="M1.21508 2.52108C0.124769 2.52108 -0.400154 1.18333 0.377692 0.386827C1.146 -0.400221 2.46154 0.127157 2.46154 1.22241C2.46154 2.01009 1.97108 2.52108 1.21508 2.52108Z" fill="#8EFF00"/>
<path d="M9.53846 9.45403V4.72702V0H10.7692H12V5.3628C12 11.2454 11.9992 11.2503 11.0617 11.7468C10.4122 12.0908 1.57015 12.0815 0.918 11.7361C0.147846 11.3281 0 10.8094 0 8.51651V6.46026H1.23077H2.46154V7.95714V9.45403H6H9.53846Z" fill="#8EFF00"/>
</svg>
